<?xml version="1.0" encoding="UTF-8"?>
<svg id="_Слой_1" data-name="Слой 1" xmlns="http://www.w3.org/2000/svg" viewBox="10 145 550 550">
  <defs>
    <style>
      .cls-1 {
        fill: #fff;
      }

      .cls-2 {
        fill: #000;
      }
    </style>
  </defs>
  <g>
    <path class="cls-2" d="M397.01,379.05l-10.45,32.46s11.79,2.23,24.02-8.22c12.23-10.46,10.01-25.8-13.57-24.24ZM407.33,399.49c-5.14,4.39-10.11,6.17-13.85,6.84l7.21-22.39c6.43.08,10.87,1.81,11.93,4.67,1.06,2.89-1.06,7.26-5.29,10.88ZM397.01,379.05l-10.45,32.46s11.79,2.23,24.02-8.22c12.23-10.46,10.01-25.8-13.57-24.24ZM407.33,399.49c-5.14,4.39-10.11,6.17-13.85,6.84l7.21-22.39c6.43.08,10.87,1.81,11.93,4.67,1.06,2.89-1.06,7.26-5.29,10.88ZM397.01,379.05l-10.45,32.46s11.79,2.23,24.02-8.22c12.23-10.46,10.01-25.8-13.57-24.24ZM407.33,399.49c-5.14,4.39-10.11,6.17-13.85,6.84l7.21-22.39c6.43.08,10.87,1.81,11.93,4.67,1.06,2.89-1.06,7.26-5.29,10.88ZM397.01,379.05l-10.45,32.46s11.79,2.23,24.02-8.22c12.23-10.46,10.01-25.8-13.57-24.24ZM407.33,399.49c-5.14,4.39-10.11,6.17-13.85,6.84l7.21-22.39c6.43.08,10.87,1.81,11.93,4.67,1.06,2.89-1.06,7.26-5.29,10.88ZM397.01,379.05l-10.45,32.46s11.79,2.23,24.02-8.22c12.23-10.46,10.01-25.8-13.57-24.24ZM407.33,399.49c-5.14,4.39-10.11,6.17-13.85,6.84l7.21-22.39c6.43.08,10.87,1.81,11.93,4.67,1.06,2.89-1.06,7.26-5.29,10.88ZM397.01,379.05l-10.45,32.46s11.79,2.23,24.02-8.22c12.23-10.46,10.01-25.8-13.57-24.24ZM407.33,399.49c-5.14,4.39-10.11,6.17-13.85,6.84l7.21-22.39c6.43.08,10.87,1.81,11.93,4.67,1.06,2.89-1.06,7.26-5.29,10.88ZM397.01,379.05l-10.45,32.46s11.79,2.23,24.02-8.22c12.23-10.46,10.01-25.8-13.57-24.24ZM407.33,399.49c-5.14,4.39-10.11,6.17-13.85,6.84l7.21-22.39c6.43.08,10.87,1.81,11.93,4.67,1.06,2.89-1.06,7.26-5.29,10.88ZM397.01,379.05l-10.45,32.46s11.79,2.23,24.02-8.22c12.23-10.46,10.01-25.8-13.57-24.24ZM407.33,399.49c-5.14,4.39-10.11,6.17-13.85,6.84l7.21-22.39c6.43.08,10.87,1.81,11.93,4.67,1.06,2.89-1.06,7.26-5.29,10.88ZM397.01,379.05l-10.45,32.46s11.79,2.23,24.02-8.22c12.23-10.46,10.01-25.8-13.57-24.24ZM407.33,399.49c-5.14,4.39-10.11,6.17-13.85,6.84l7.21-22.39c6.43.08,10.87,1.81,11.93,4.67,1.06,2.89-1.06,7.26-5.29,10.88ZM397.01,379.05l-10.45,32.46s11.79,2.23,24.02-8.22c12.23-10.46,10.01-25.8-13.57-24.24ZM407.33,399.49c-5.14,4.39-10.11,6.17-13.85,6.84l7.21-22.39c6.43.08,10.87,1.81,11.93,4.67,1.06,2.89-1.06,7.26-5.29,10.88ZM397.01,379.05l-10.45,32.46s11.79,2.23,24.02-8.22c12.23-10.46,10.01-25.8-13.57-24.24ZM407.33,399.49c-5.14,4.39-10.11,6.17-13.85,6.84l7.21-22.39c6.43.08,10.87,1.81,11.93,4.67,1.06,2.89-1.06,7.26-5.29,10.88ZM397.01,379.05l-10.45,32.46s11.79,2.23,24.02-8.22c12.23-10.46,10.01-25.8-13.57-24.24ZM407.33,399.49c-5.14,4.39-10.11,6.17-13.85,6.84l7.21-22.39c6.43.08,10.87,1.81,11.93,4.67,1.06,2.89-1.06,7.26-5.29,10.88ZM397.01,379.05l-10.45,32.46s11.79,2.23,24.02-8.22c12.23-10.46,10.01-25.8-13.57-24.24ZM407.33,399.49c-5.14,4.39-10.11,6.17-13.85,6.84l7.21-22.39c6.43.08,10.87,1.81,11.93,4.67,1.06,2.89-1.06,7.26-5.29,10.88ZM397.01,379.05l-10.45,32.46s11.79,2.23,24.02-8.22c12.23-10.46,10.01-25.8-13.57-24.24ZM407.33,399.49c-5.14,4.39-10.11,6.17-13.85,6.84l7.21-22.39c6.43.08,10.87,1.81,11.93,4.67,1.06,2.89-1.06,7.26-5.29,10.88ZM397.01,379.05l-10.45,32.46s11.79,2.23,24.02-8.22c12.23-10.46,10.01-25.8-13.57-24.24ZM407.33,399.49c-5.14,4.39-10.11,6.17-13.85,6.84l7.21-22.39c6.43.08,10.87,1.81,11.93,4.67,1.06,2.89-1.06,7.26-5.29,10.88ZM397.01,379.05l-10.45,32.46s11.79,2.23,24.02-8.22c12.23-10.46,10.01-25.8-13.57-24.24ZM407.33,399.49c-5.14,4.39-10.11,6.17-13.85,6.84l7.21-22.39c6.43.08,10.87,1.81,11.93,4.67,1.06,2.89-1.06,7.26-5.29,10.88ZM397.01,379.05l-10.45,32.46s11.79,2.23,24.02-8.22c12.23-10.46,10.01-25.8-13.57-24.24ZM407.33,399.49c-5.14,4.39-10.11,6.17-13.85,6.84l7.21-22.39c6.43.08,10.87,1.81,11.93,4.67,1.06,2.89-1.06,7.26-5.29,10.88ZM397.01,379.05l-10.45,32.46s11.79,2.23,24.02-8.22c12.23-10.46,10.01-25.8-13.57-24.24ZM407.33,399.49c-5.14,4.39-10.11,6.17-13.85,6.84l7.21-22.39c6.43.08,10.87,1.81,11.93,4.67,1.06,2.89-1.06,7.26-5.29,10.88ZM397.01,379.05l-10.45,32.46s11.79,2.23,24.02-8.22c12.23-10.46,10.01-25.8-13.57-24.24ZM407.33,399.49c-5.14,4.39-10.11,6.17-13.85,6.84l7.21-22.39c6.43.08,10.87,1.81,11.93,4.67,1.06,2.89-1.06,7.26-5.29,10.88ZM397.01,379.05l-10.45,32.46s11.79,2.23,24.02-8.22c12.23-10.46,10.01-25.8-13.57-24.24ZM407.33,399.49c-5.14,4.39-10.11,6.17-13.85,6.84l7.21-22.39c6.43.08,10.87,1.81,11.93,4.67,1.06,2.89-1.06,7.26-5.29,10.88ZM397.01,379.05l-10.45,32.46s11.79,2.23,24.02-8.22c12.23-10.46,10.01-25.8-13.57-24.24ZM407.33,399.49c-5.14,4.39-10.11,6.17-13.85,6.84l7.21-22.39c6.43.08,10.87,1.81,11.93,4.67,1.06,2.89-1.06,7.26-5.29,10.88ZM397.01,379.05l-10.45,32.46s11.79,2.23,24.02-8.22c12.23-10.46,10.01-25.8-13.57-24.24ZM407.33,399.49c-5.14,4.39-10.11,6.17-13.85,6.84l7.21-22.39c6.43.08,10.87,1.81,11.93,4.67,1.06,2.89-1.06,7.26-5.29,10.88ZM397.01,379.05l-10.45,32.46s11.79,2.23,24.02-8.22c12.23-10.46,10.01-25.8-13.57-24.24ZM407.33,399.49c-5.14,4.39-10.11,6.17-13.85,6.84l7.21-22.39c6.43.08,10.87,1.81,11.93,4.67,1.06,2.89-1.06,7.26-5.29,10.88Z"/>
    <path class="cls-2" d="M397.01,379.05l-10.45,32.46s11.79,2.23,24.02-8.22c12.23-10.46,10.01-25.8-13.57-24.24ZM407.33,399.49c-5.14,4.39-10.11,6.17-13.85,6.84l7.21-22.39c6.43.08,10.87,1.81,11.93,4.67,1.06,2.89-1.06,7.26-5.29,10.88ZM397.01,379.05l-10.45,32.46s11.79,2.23,24.02-8.22c12.23-10.46,10.01-25.8-13.57-24.24ZM407.33,399.49c-5.14,4.39-10.11,6.17-13.85,6.84l7.21-22.39c6.43.08,10.87,1.81,11.93,4.67,1.06,2.89-1.06,7.26-5.29,10.88ZM397.01,379.05l-10.45,32.46s11.79,2.23,24.02-8.22c12.23-10.46,10.01-25.8-13.57-24.24ZM407.33,399.49c-5.14,4.39-10.11,6.17-13.85,6.84l7.21-22.39c6.43.08,10.87,1.81,11.93,4.67,1.06,2.89-1.06,7.26-5.29,10.88ZM397.01,379.05l-10.45,32.46s11.79,2.23,24.02-8.22c12.23-10.46,10.01-25.8-13.57-24.24ZM407.33,399.49c-5.14,4.39-10.11,6.17-13.85,6.84l7.21-22.39c6.43.08,10.87,1.81,11.93,4.67,1.06,2.89-1.06,7.26-5.29,10.88ZM397.01,379.05l-10.45,32.46s11.79,2.23,24.02-8.22c12.23-10.46,10.01-25.8-13.57-24.24ZM407.33,399.49c-5.14,4.39-10.11,6.17-13.85,6.84l7.21-22.39c6.43.08,10.87,1.81,11.93,4.67,1.06,2.89-1.06,7.26-5.29,10.88ZM397.01,379.05l-10.45,32.46s11.79,2.23,24.02-8.22c12.23-10.46,10.01-25.8-13.57-24.24ZM407.33,399.49c-5.14,4.39-10.11,6.17-13.85,6.84l7.21-22.39c6.43.08,10.87,1.81,11.93,4.67,1.06,2.89-1.06,7.26-5.29,10.88ZM397.01,379.05l-10.45,32.46s11.79,2.23,24.02-8.22c12.23-10.46,10.01-25.8-13.57-24.24ZM407.33,399.49c-5.14,4.39-10.11,6.17-13.85,6.84l7.21-22.39c6.43.08,10.87,1.81,11.93,4.67,1.06,2.89-1.06,7.26-5.29,10.88ZM397.01,379.05l-10.45,32.46s11.79,2.23,24.02-8.22c12.23-10.46,10.01-25.8-13.57-24.24ZM407.33,399.49c-5.14,4.39-10.11,6.17-13.85,6.84l7.21-22.39c6.43.08,10.87,1.81,11.93,4.67,1.06,2.89-1.06,7.26-5.29,10.88ZM397.01,379.05l-10.45,32.46s11.79,2.23,24.02-8.22c12.23-10.46,10.01-25.8-13.57-24.24ZM407.33,399.49c-5.14,4.39-10.11,6.17-13.85,6.84l7.21-22.39c6.43.08,10.87,1.81,11.93,4.67,1.06,2.89-1.06,7.26-5.29,10.88ZM397.01,379.05l-10.45,32.46s11.79,2.23,24.02-8.22c12.23-10.46,10.01-25.8-13.57-24.24ZM407.33,399.49c-5.14,4.39-10.11,6.17-13.85,6.84l7.21-22.39c6.43.08,10.87,1.81,11.93,4.67,1.06,2.89-1.06,7.26-5.29,10.88ZM397.01,379.05l-10.45,32.46s11.79,2.23,24.02-8.22c12.23-10.46,10.01-25.8-13.57-24.24ZM407.33,399.49c-5.14,4.39-10.11,6.17-13.85,6.84l7.21-22.39c6.43.08,10.87,1.81,11.93,4.67,1.06,2.89-1.06,7.26-5.29,10.88ZM397.01,379.05l-10.45,32.46s11.79,2.23,24.02-8.22c12.23-10.46,10.01-25.8-13.57-24.24ZM407.33,399.49c-5.14,4.39-10.11,6.17-13.85,6.84l7.21-22.39c6.43.08,10.87,1.81,11.93,4.67,1.06,2.89-1.06,7.26-5.29,10.88ZM397.01,379.05l-10.45,32.46s11.79,2.23,24.02-8.22c12.23-10.46,10.01-25.8-13.57-24.24ZM407.33,399.49c-5.14,4.39-10.11,6.17-13.85,6.84l7.21-22.39c6.43.08,10.87,1.81,11.93,4.67,1.06,2.89-1.06,7.26-5.29,10.88ZM397.01,379.05l-10.45,32.46s11.79,2.23,24.02-8.22c12.23-10.46,10.01-25.8-13.57-24.24ZM407.33,399.49c-5.14,4.39-10.11,6.17-13.85,6.84l7.21-22.39c6.43.08,10.87,1.81,11.93,4.67,1.06,2.89-1.06,7.26-5.29,10.88ZM397.01,379.05l-10.45,32.46s11.79,2.23,24.02-8.22c12.23-10.46,10.01-25.8-13.57-24.24ZM407.33,399.49c-5.14,4.39-10.11,6.17-13.85,6.84l7.21-22.39c6.43.08,10.87,1.81,11.93,4.67,1.06,2.89-1.06,7.26-5.29,10.88ZM397.01,379.05l-10.45,32.46s11.79,2.23,24.02-8.22c12.23-10.46,10.01-25.8-13.57-24.24ZM407.33,399.49c-5.14,4.39-10.11,6.17-13.85,6.84l7.21-22.39c6.43.08,10.87,1.81,11.93,4.67,1.06,2.89-1.06,7.26-5.29,10.88ZM397.01,379.05l-10.45,32.46s11.79,2.23,24.02-8.22c12.23-10.46,10.01-25.8-13.57-24.24ZM407.33,399.49c-5.14,4.39-10.11,6.17-13.85,6.84l7.21-22.39c6.43.08,10.87,1.81,11.93,4.67,1.06,2.89-1.06,7.26-5.29,10.88ZM397.01,379.05l-10.45,32.46s11.79,2.23,24.02-8.22c12.23-10.46,10.01-25.8-13.57-24.24ZM407.33,399.49c-5.14,4.39-10.11,6.17-13.85,6.84l7.21-22.39c6.43.08,10.87,1.81,11.93,4.67,1.06,2.89-1.06,7.26-5.29,10.88ZM397.01,379.05l-10.45,32.46s11.79,2.23,24.02-8.22c12.23-10.46,10.01-25.8-13.57-24.24ZM407.33,399.49c-5.14,4.39-10.11,6.17-13.85,6.84l7.21-22.39c6.43.08,10.87,1.81,11.93,4.67,1.06,2.89-1.06,7.26-5.29,10.88ZM397.01,379.05l-10.45,32.46s11.79,2.23,24.02-8.22c12.23-10.46,10.01-25.8-13.57-24.24ZM407.33,399.49c-5.14,4.39-10.11,6.17-13.85,6.84l7.21-22.39c6.43.08,10.87,1.81,11.93,4.67,1.06,2.89-1.06,7.26-5.29,10.88ZM397.01,379.05l-10.45,32.46s11.79,2.23,24.02-8.22c12.23-10.46,10.01-25.8-13.57-24.24ZM407.33,399.49c-5.14,4.39-10.11,6.17-13.85,6.84l7.21-22.39c6.43.08,10.87,1.81,11.93,4.67,1.06,2.89-1.06,7.26-5.29,10.88ZM397.01,379.05l-10.45,32.46s11.79,2.23,24.02-8.22c12.23-10.46,10.01-25.8-13.57-24.24ZM407.33,399.49c-5.14,4.39-10.11,6.17-13.85,6.84l7.21-22.39c6.43.08,10.87,1.81,11.93,4.67,1.06,2.89-1.06,7.26-5.29,10.88ZM397.01,379.05l-10.45,32.46s11.79,2.23,24.02-8.22c12.23-10.46,10.01-25.8-13.57-24.24ZM407.33,399.49c-5.14,4.39-10.11,6.17-13.85,6.84l7.21-22.39c6.43.08,10.87,1.81,11.93,4.67,1.06,2.89-1.06,7.26-5.29,10.88Z"/>
    <g>
      <path class="cls-2" d="M397.01,379.05l-10.45,32.46s11.79,2.23,24.02-8.22c12.23-10.46,10.01-25.8-13.57-24.24ZM407.33,399.49c-5.14,4.39-10.11,6.17-13.85,6.84l7.21-22.39c6.43.08,10.87,1.81,11.93,4.67,1.06,2.89-1.06,7.26-5.29,10.88ZM397.01,379.05l-10.45,32.46s11.79,2.23,24.02-8.22c12.23-10.46,10.01-25.8-13.57-24.24ZM407.33,399.49c-5.14,4.39-10.11,6.17-13.85,6.84l7.21-22.39c6.43.08,10.87,1.81,11.93,4.67,1.06,2.89-1.06,7.26-5.29,10.88ZM397.01,379.05l-10.45,32.46s11.79,2.23,24.02-8.22c12.23-10.46,10.01-25.8-13.57-24.24ZM407.33,399.49c-5.14,4.39-10.11,6.17-13.85,6.84l7.21-22.39c6.43.08,10.87,1.81,11.93,4.67,1.06,2.89-1.06,7.26-5.29,10.88ZM397.01,379.05l-10.45,32.46s11.79,2.23,24.02-8.22c12.23-10.46,10.01-25.8-13.57-24.24ZM407.33,399.49c-5.14,4.39-10.11,6.17-13.85,6.84l7.21-22.39c6.43.08,10.87,1.81,11.93,4.67,1.06,2.89-1.06,7.26-5.29,10.88ZM397.01,379.05l-10.45,32.46s11.79,2.23,24.02-8.22c12.23-10.46,10.01-25.8-13.57-24.24ZM407.33,399.49c-5.14,4.39-10.11,6.17-13.85,6.84l7.21-22.39c6.43.08,10.87,1.81,11.93,4.67,1.06,2.89-1.06,7.26-5.29,10.88ZM397.01,379.05l-10.45,32.46s11.79,2.23,24.02-8.22c12.23-10.46,10.01-25.8-13.57-24.24ZM407.33,399.49c-5.14,4.39-10.11,6.17-13.85,6.84l7.21-22.39c6.43.08,10.87,1.81,11.93,4.67,1.06,2.89-1.06,7.26-5.29,10.88ZM397.01,379.05l-10.45,32.46s11.79,2.23,24.02-8.22c12.23-10.46,10.01-25.8-13.57-24.24ZM407.33,399.49c-5.14,4.39-10.11,6.17-13.85,6.84l7.21-22.39c6.43.08,10.87,1.81,11.93,4.67,1.06,2.89-1.06,7.26-5.29,10.88ZM397.01,379.05l-10.45,32.46s11.79,2.23,24.02-8.22c12.23-10.46,10.01-25.8-13.57-24.24ZM407.33,399.49c-5.14,4.39-10.11,6.17-13.85,6.84l7.21-22.39c6.43.08,10.87,1.81,11.93,4.67,1.06,2.89-1.06,7.26-5.29,10.88ZM397.01,379.05l-10.45,32.46s11.79,2.23,24.02-8.22c12.23-10.46,10.01-25.8-13.57-24.24ZM407.33,399.49c-5.14,4.39-10.11,6.17-13.85,6.84l7.21-22.39c6.43.08,10.87,1.81,11.93,4.67,1.06,2.89-1.06,7.26-5.29,10.88ZM397.01,379.05l-10.45,32.46s11.79,2.23,24.02-8.22c12.23-10.46,10.01-25.8-13.57-24.24ZM407.33,399.49c-5.14,4.39-10.11,6.17-13.85,6.84l7.21-22.39c6.43.08,10.87,1.81,11.93,4.67,1.06,2.89-1.06,7.26-5.29,10.88ZM397.01,379.05l-10.45,32.46s11.79,2.23,24.02-8.22c12.23-10.46,10.01-25.8-13.57-24.24ZM407.33,399.49c-5.14,4.39-10.11,6.17-13.85,6.84l7.21-22.39c6.43.08,10.87,1.81,11.93,4.67,1.06,2.89-1.06,7.26-5.29,10.88ZM397.01,379.05l-10.45,32.46s11.79,2.23,24.02-8.22c12.23-10.46,10.01-25.8-13.57-24.24ZM407.33,399.49c-5.14,4.39-10.11,6.17-13.85,6.84l7.21-22.39c6.43.08,10.87,1.81,11.93,4.67,1.06,2.89-1.06,7.26-5.29,10.88ZM397.01,379.05l-10.45,32.46s11.79,2.23,24.02-8.22c12.23-10.46,10.01-25.8-13.57-24.24ZM407.33,399.49c-5.14,4.39-10.11,6.17-13.85,6.84l7.21-22.39c6.43.08,10.87,1.81,11.93,4.67,1.06,2.89-1.06,7.26-5.29,10.88ZM397.01,379.05l-10.45,32.46s11.79,2.23,24.02-8.22c12.23-10.46,10.01-25.8-13.57-24.24ZM407.33,399.49c-5.14,4.39-10.11,6.17-13.85,6.84l7.21-22.39c6.43.08,10.87,1.81,11.93,4.67,1.06,2.89-1.06,7.26-5.29,10.88ZM397.01,379.05l-10.45,32.46s11.79,2.23,24.02-8.22c12.23-10.46,10.01-25.8-13.57-24.24ZM407.33,399.49c-5.14,4.39-10.11,6.17-13.85,6.84l7.21-22.39c6.43.08,10.87,1.81,11.93,4.67,1.06,2.89-1.06,7.26-5.29,10.88ZM397.01,379.05l-10.45,32.46s11.79,2.23,24.02-8.22c12.23-10.46,10.01-25.8-13.57-24.24ZM407.33,399.49c-5.14,4.39-10.11,6.17-13.85,6.84l7.21-22.39c6.43.08,10.87,1.81,11.93,4.67,1.06,2.89-1.06,7.26-5.29,10.88ZM397.01,379.05l-10.45,32.46s11.79,2.23,24.02-8.22c12.23-10.46,10.01-25.8-13.57-24.24ZM407.33,399.49c-5.14,4.39-10.11,6.17-13.85,6.84l7.21-22.39c6.43.08,10.87,1.81,11.93,4.67,1.06,2.89-1.06,7.26-5.29,10.88ZM397.01,379.05l-10.45,32.46s11.79,2.23,24.02-8.22c12.23-10.46,10.01-25.8-13.57-24.24ZM407.33,399.49c-5.14,4.39-10.11,6.17-13.85,6.84l7.21-22.39c6.43.08,10.87,1.81,11.93,4.67,1.06,2.89-1.06,7.26-5.29,10.88ZM397.01,379.05l-10.45,32.46s11.79,2.23,24.02-8.22c12.23-10.46,10.01-25.8-13.57-24.24ZM407.33,399.49c-5.14,4.39-10.11,6.17-13.85,6.84l7.21-22.39c6.43.08,10.87,1.81,11.93,4.67,1.06,2.89-1.06,7.26-5.29,10.88Z"/>
      <path class="cls-2" d="M412.14,320.56l-9.57,30.69s15.57-1.56,22.91-11.79,1.78-21.12-13.34-18.9ZM421.42,336.54c-2.86,3.99-7.47,6.39-11.46,7.82l5.95-19.09h.03c3.61,0,6.25,1.12,7.26,3.07,1.07,2.09.4,5.16-1.78,8.2Z"/>
    </g>
  </g>
  <polygon class="cls-2" points="310.36 294.84 319.89 269.34 295.69 254.9 327.32 252.1 340.07 220.28 343.86 248.17 361.8 245.79 344.98 261.21 345.93 283.35 332.78 273.26 310.36 294.84"/>
  <path class="cls-2" d="M539.94,322.3c-10.98,88.6-119.56,180.9-184.62,214.18-4.08,2.14-8.17,4.25-12.24,6.37l25.7,21.75-50.87,1.49-23.53,46.21-1.38-45.18c-18.13,7.88-36.48,14.58-55.38,19.18l-3.4,35.42-14.6-27.58-27.58,15,8.95-16.91c-12,.95-24.27.92-36.91-.32l-4.82,29.8-10.5-27.93-24.63,11.71,13.42-18.72c-41.9-15.35-27.27-63.1-4.02-97.75,1.59-2.71,19.6-27.43,21.8-25.14v.04c.19,1.18-1.56,4.6-2.35,6.25-10.5,21.04-27.18,46.59-28.01,70.92v.14c-.3,7.01,2.99,13.72,8.6,17.93,3.97,2.98,8.38,5.45,13.22,7.42h.02s6.74.48,6.74.48l16.81-21.32-4.2,25.22,8.22,1.58h.01c8.89.62,18.46.3,28.56-.89l-14.87-13.88,32.89,5.04,18.89-28.97,1.08,30.17c9.29-2.55,18.82-5.62,28.48-9.15l17.53-14.43-7.64-42.39,31.8,24.16,40.06-25.87-14.13,27.58c119.76-65.52,226.8-181,145.04-245.69-21.9-17.15-49.91-18.11-77.83-15.59-16.79,1.67-32.85,4.93-47.75,8.17-1.13.18-4,.98-4.39.59,50.08-19.59,143.55-43.65,178.98,10.46,7.91,12.26,10.33,26.28,8.85,40.43Z"/>
  <g>
    <path class="cls-2" d="M460.57,361.46c10.77-11.65,15.74-25.21,14.41-39.54-1.29-13.84-7.23-25.37-17.19-33.33-9.72-7.77-22.61-11.72-38.29-11.72-8.29,0-17.38,1.13-27.14,3.36l.12-.49-92.61,25.71,7.04-22.61-72.34,24.67-2.73,6.85c-.75,1.9-1.51,3.78-2.26,5.63l1.09-4.85-40.82,14.78,25.02-58.08-114.62,49.45-68.1,222.31,82.94-49.42,24.46-90.93,10.76-5.71-15.16,71.71,25.63-7.43c.86-.25,3.12-.93,6.36-2.07l-26.21,66.28,25.71-2.17c1.58-.13,39-3.58,62.08-31.67,4.36-5.31,11.44-16.68,25.43-52.73l-13.49,49.26,75.57-17.43,29.33-111.75,5.78-1.19-29.89,115,22.77-2.18c7.85-.76,77.56-8.23,105.92-37.63,18.23-18.9,24.83-42.31,17.23-61.08-1.68-4.14-3.98-7.83-6.8-11ZM140.68,379.77h0s-29.89,111.15-29.89,111.15l-70.06,41.75,63.62-207.7,100.95-43.56-21.91,50.85-7.73,2.8,18.16-42.16-84.54,36.48-58.25,190.17,54.6-32.54,32.67-121.47,4.83-1.44-2.45,15.67ZM169.2,337.4l-23.22,8.41-2,12.82-9.78,2.92-32.88,122.21-41.72,24.86,53.78-175.57,70.87-30.58-15.05,34.93ZM224.85,489.02c-21.75,26.47-57.13,29.74-58.63,29.86l-17.67,1.49,26.19-66.24,10.53,5.19c1.77-1.21,5.61-6.23,9.85-18.3-17.07,10.49-34.66,15.69-35.73,15.99l-17.62,5.12,15.64-74.01-14.14,7.5,2.3-14.75h0s1.84-11.79,1.84-11.79l1.02-6.56.85-5.47,1.18-7.55,16.03-5.8,6.45-2.34,7.74-2.8,6.45-2.34,36.66-13.27-4.4,19.59c-1.6,7.13-3.23,14.88-4.63,22.04,6.55-12.64,14.55-30.29,21.73-48.37l1.87-4.72,60.85-20.74-5.06,16.29-6.88,1.91,2.71-8.72-47.06,16.05-.85,2.14c-9.31,23.46-27.07,62.95-35.09,69.06-.86.66-1.6,1.11-2.19,1.42.32-6.85,4.54-28.94,8.75-47.68l2-8.9-31.67,11.47-6.45,2.34-7.74,2.8-6.45,2.34-7.38,2.67-.19,1.2-.85,5.47-1.03,6.57-.85,5.47-1.89,12.06,14.9-7.9-16.23,76.76,8.01-2.32c1.32-.38,29.38-8.67,48.06-25.47-6.99,29.1-15.2,39.69-20.41,39.69-.81,0-1.65-.23-2.58-.68l-4.87-2.4-20.23,51.19,8.03-.68c1.39-.11,34.33-3.15,54.5-27.69,10.55-12.84,28.77-61.63,43.53-104.56l7.05-1.97-.02.05c-15.17,44.37-34.45,96.32-45.93,110.29ZM183.65,452.95c.27-.13.54-.26.81-.39-.13.21-.26.41-.39.6l-.42-.21ZM208.27,416.08c-17.04,20.25-51.94,30.37-51.94,30.37l16.71-79.06-15.52,8.22.71-4.54.86-5.47h0s1.02-6.57,1.02-6.57l.22-1.4,6.64-2.4,7.74-2.81,6.45-2.33,27.5-9.96s-10.08,44.88-8.74,51.33c1.02,4.94,6.13,3.02,10.09,0,12.12-9.24,36.7-71.19,36.7-71.19l35.57-12.13s-.26.84-.75,2.41l-15.65,4.34-42.86,77.14,34.86-9.74c-14.39,41.7-31.68,87.75-41.53,99.74-19.05,23.19-51.05,25.89-51.05,25.89l15.28-38.65c17.23,8.48,27.7-30.19,32.02-51.12.53-2.53-2.67-4.05-4.33-2.07ZM341.51,355.27l-29.35,111.82-64.46,14.88,28.01-102.31.04-.12,2.2-8.05-5.19,1.45-7.04,1.97h-.01l-5.85,1.63-26.65,7.45,36.02-64.84,10.5-2.92,5.76-1.6,6.89-1.91,5.73-1.59,70.6-19.6h0s16.87-4.69,16.87-4.69l-.07.28-1.65,6.73h-.01l-13.66,55.52-5.44,1.12-6.55,1.35-5.46,1.12-11.23,2.31ZM388.02,297.85c44.65-12.63,68.63-.15,71.03,25.56,2.47,26.61-28.78,40.85-28.78,40.85,27.23.93,33.42,32.18,8.35,58.18-25.07,25.99-95.93,32.8-95.93,32.8l26.12-100.48,5.48-1.13,13.73-55.78ZM446.54,430.07c-11.89,12.32-33,22.15-62.75,29.22-21.34,5.06-39.3,6.83-40.05,6.9l-15.65,1.5,28.71-110.46,6.55-1.35-27.3,105.02,7.12-.68c2.97-.29,73-7.3,99.05-34.31,15.17-15.74,20.9-34.63,14.95-49.32-2.68-6.62-7.5-11.57-13.85-14.46,1.83-1.34,3.74-2.89,5.65-4.63,11.01-10.11,16.22-22.06,15.06-34.55-2.08-22.29-18.31-35.08-44.53-35.08-8.96,0-19.06,1.48-30.11,4.41l1.63-6.6c10.33-2.53,19.87-3.81,28.48-3.81,29.26,0,48.14,15.15,50.5,40.52,1.62,17.47-7.29,30.49-16.56,39.13,4.04,3.38,7.23,7.71,9.29,12.82,6.85,16.91.65,38.27-16.19,55.73Z"/>
    <path class="cls-2" d="M372.53,296.7l-5.56,1.54-71,19.71-5.74,1.6-6.91,1.92-5.77,1.6-4.29,1.19-27.83,50.09,16.77-4.69,5.85-1.63,7.02-1.97h.01l5.76-1.61,5.7-1.59-30.4,111,51.14-11.8,29.38-111.92,17.77-3.66,5.46-1.12,5.38-1.11,12.04-48.88-4.78,1.33ZM361.17,339.99l-5.34,1.1-23.22,4.78-29.4,112-40.04,9.24,30.52-111.44-10.94,3.06-5.76,1.61-7.01,1.96-5.84,1.63-8.53,2.38,19.07-34.33,1.93-3.47,4.89-1.36,6.93-1.92,5.73-1.59,71.35-19.81,4.9-1.36-9.24,37.52Z"/>
  </g>
</svg>