<?xml version="1.0" encoding="UTF-8"?>
<svg id="_Слой_1" data-name=" Слой 1" xmlns="http://www.w3.org/2000/svg" viewBox="0 0 497.05 392.63">
  <defs>
    <style>
      .cls-1 {
        fill: #fff;
      }
    </style>
  </defs>
  <g>
    <path class="cls-1" d="M356.85,155.29l-10.22,31.75s11.53,2.18,23.49-8.04c11.96-10.23,9.79-25.23-13.27-23.71h0ZM366.95,175.28c-5.03,4.29-9.89,6.03-13.55,6.69l7.05-21.9c6.29.08,10.63,1.77,11.67,4.57,1.04,2.83-1.04,7.1-5.17,10.64h0ZM356.85,155.29l-10.22,31.75s11.53,2.18,23.49-8.04c11.96-10.23,9.79-25.23-13.27-23.71h0ZM366.95,175.28c-5.03,4.29-9.89,6.03-13.55,6.69l7.05-21.9c6.29.08,10.63,1.77,11.67,4.57,1.04,2.83-1.04,7.1-5.17,10.64h0ZM356.85,155.29l-10.22,31.75s11.53,2.18,23.49-8.04c11.96-10.23,9.79-25.23-13.27-23.71h0ZM366.95,175.28c-5.03,4.29-9.89,6.03-13.55,6.69l7.05-21.9c6.29.08,10.63,1.77,11.67,4.57,1.04,2.83-1.04,7.1-5.17,10.64h0ZM356.85,155.29l-10.22,31.75s11.53,2.18,23.49-8.04c11.96-10.23,9.79-25.23-13.27-23.71h0ZM366.95,175.28c-5.03,4.29-9.89,6.03-13.55,6.69l7.05-21.9c6.29.08,10.63,1.77,11.67,4.57,1.04,2.83-1.04,7.1-5.17,10.64h0ZM356.85,155.29l-10.22,31.75s11.53,2.18,23.49-8.04c11.96-10.23,9.79-25.23-13.27-23.71h0ZM366.95,175.28c-5.03,4.29-9.89,6.03-13.55,6.69l7.05-21.9c6.29.08,10.63,1.77,11.67,4.57,1.04,2.83-1.04,7.1-5.17,10.64h0ZM356.85,155.29l-10.22,31.75s11.53,2.18,23.49-8.04c11.96-10.23,9.79-25.23-13.27-23.71h0ZM366.95,175.28c-5.03,4.29-9.89,6.03-13.55,6.69l7.05-21.9c6.29.08,10.63,1.77,11.67,4.57,1.04,2.83-1.04,7.1-5.17,10.64h0ZM356.85,155.29l-10.22,31.75s11.53,2.18,23.49-8.04c11.96-10.23,9.79-25.23-13.27-23.71h0ZM366.95,175.28c-5.03,4.29-9.89,6.03-13.55,6.69l7.05-21.9c6.29.08,10.63,1.77,11.67,4.57,1.04,2.83-1.04,7.1-5.17,10.64h0ZM356.85,155.29l-10.22,31.75s11.53,2.18,23.49-8.04c11.96-10.23,9.79-25.23-13.27-23.71h0ZM366.95,175.28c-5.03,4.29-9.89,6.03-13.55,6.69l7.05-21.9c6.29.08,10.63,1.77,11.67,4.57,1.04,2.83-1.04,7.1-5.17,10.64h0ZM356.85,155.29l-10.22,31.75s11.53,2.18,23.49-8.04c11.96-10.23,9.79-25.23-13.27-23.71h0ZM366.95,175.28c-5.03,4.29-9.89,6.03-13.55,6.69l7.05-21.9c6.29.08,10.63,1.77,11.67,4.57,1.04,2.83-1.04,7.1-5.17,10.64h0ZM356.85,155.29l-10.22,31.75s11.53,2.18,23.49-8.04c11.96-10.23,9.79-25.23-13.27-23.71h0ZM366.95,175.28c-5.03,4.29-9.89,6.03-13.55,6.69l7.05-21.9c6.29.08,10.63,1.77,11.67,4.57,1.04,2.83-1.04,7.1-5.17,10.64h0ZM356.85,155.29l-10.22,31.75s11.53,2.18,23.49-8.04c11.96-10.23,9.79-25.23-13.27-23.71h0ZM366.95,175.28c-5.03,4.29-9.89,6.03-13.55,6.69l7.05-21.9c6.29.08,10.63,1.77,11.67,4.57,1.04,2.83-1.04,7.1-5.17,10.64h0ZM356.85,155.29l-10.22,31.75s11.53,2.18,23.49-8.04c11.96-10.23,9.79-25.23-13.27-23.71h0ZM366.95,175.28c-5.03,4.29-9.89,6.03-13.55,6.69l7.05-21.9c6.29.08,10.63,1.77,11.67,4.57,1.04,2.83-1.04,7.1-5.17,10.64h0ZM356.85,155.29l-10.22,31.75s11.53,2.18,23.49-8.04c11.96-10.23,9.79-25.23-13.27-23.71h0ZM366.95,175.28c-5.03,4.29-9.89,6.03-13.55,6.69l7.05-21.9c6.29.08,10.63,1.77,11.67,4.57,1.04,2.83-1.04,7.1-5.17,10.64h0ZM356.85,155.29l-10.22,31.75s11.53,2.18,23.49-8.04c11.96-10.23,9.79-25.23-13.27-23.71h0ZM366.95,175.28c-5.03,4.29-9.89,6.03-13.55,6.69l7.05-21.9c6.29.08,10.63,1.77,11.67,4.57,1.04,2.83-1.04,7.1-5.17,10.64h0ZM356.85,155.29l-10.22,31.75s11.53,2.18,23.49-8.04c11.96-10.23,9.79-25.23-13.27-23.71h0ZM366.95,175.28c-5.03,4.29-9.89,6.03-13.55,6.69l7.05-21.9c6.29.08,10.63,1.77,11.67,4.57,1.04,2.83-1.04,7.1-5.17,10.64h0ZM356.85,155.29l-10.22,31.75s11.53,2.18,23.49-8.04c11.96-10.23,9.79-25.23-13.27-23.71h0ZM366.95,175.28c-5.03,4.29-9.89,6.03-13.55,6.69l7.05-21.9c6.29.08,10.63,1.77,11.67,4.57,1.04,2.83-1.04,7.1-5.17,10.64h0ZM356.85,155.29l-10.22,31.75s11.53,2.18,23.49-8.04c11.96-10.23,9.79-25.23-13.27-23.71h0ZM366.95,175.28c-5.03,4.29-9.89,6.03-13.55,6.69l7.05-21.9c6.29.08,10.63,1.77,11.67,4.57,1.04,2.83-1.04,7.1-5.17,10.64h0ZM356.85,155.29l-10.22,31.75s11.53,2.18,23.49-8.04c11.96-10.23,9.79-25.23-13.27-23.71h0ZM366.95,175.28c-5.03,4.29-9.89,6.03-13.55,6.69l7.05-21.9c6.29.08,10.63,1.77,11.67,4.57,1.04,2.83-1.04,7.1-5.17,10.64h0ZM356.85,155.29l-10.22,31.75s11.53,2.18,23.49-8.04c11.96-10.23,9.79-25.23-13.27-23.71h0ZM366.95,175.28c-5.03,4.29-9.89,6.03-13.55,6.69l7.05-21.9c6.29.08,10.63,1.77,11.67,4.57,1.04,2.83-1.04,7.1-5.17,10.64h0ZM356.85,155.29l-10.22,31.75s11.53,2.18,23.49-8.04c11.96-10.23,9.79-25.23-13.27-23.71h0ZM366.95,175.28c-5.03,4.29-9.89,6.03-13.55,6.69l7.05-21.9c6.29.08,10.63,1.77,11.67,4.57,1.04,2.83-1.04,7.1-5.17,10.64h0ZM356.85,155.29l-10.22,31.75s11.53,2.18,23.49-8.04c11.96-10.23,9.79-25.23-13.27-23.71h0ZM366.95,175.28c-5.03,4.29-9.89,6.03-13.55,6.69l7.05-21.9c6.29.08,10.63,1.77,11.67,4.57,1.04,2.83-1.04,7.1-5.17,10.64h0ZM356.85,155.29l-10.22,31.75s11.53,2.18,23.49-8.04c11.96-10.23,9.79-25.23-13.27-23.71h0ZM366.95,175.28c-5.03,4.29-9.89,6.03-13.55,6.69l7.05-21.9c6.29.08,10.63,1.77,11.67,4.57,1.04,2.83-1.04,7.1-5.17,10.64h0ZM356.85,155.29l-10.22,31.75s11.53,2.18,23.49-8.04c11.96-10.23,9.79-25.23-13.27-23.71h0ZM366.95,175.28c-5.03,4.29-9.89,6.03-13.55,6.69l7.05-21.9c6.29.08,10.63,1.77,11.67,4.57,1.04,2.83-1.04,7.1-5.17,10.64h0Z"/>
    <path class="cls-1" d="M356.85,155.29l-10.22,31.75s11.53,2.18,23.49-8.04c11.96-10.23,9.79-25.23-13.27-23.71h0ZM366.95,175.28c-5.03,4.29-9.89,6.03-13.55,6.69l7.05-21.9c6.29.08,10.63,1.77,11.67,4.57,1.04,2.83-1.04,7.1-5.17,10.64h0ZM356.85,155.29l-10.22,31.75s11.53,2.18,23.49-8.04c11.96-10.23,9.79-25.23-13.27-23.71h0ZM366.95,175.28c-5.03,4.29-9.89,6.03-13.55,6.69l7.05-21.9c6.29.08,10.63,1.77,11.67,4.57,1.04,2.83-1.04,7.1-5.17,10.64h0ZM356.85,155.29l-10.22,31.75s11.53,2.18,23.49-8.04c11.96-10.23,9.79-25.23-13.27-23.71h0ZM366.95,175.28c-5.03,4.29-9.89,6.03-13.55,6.69l7.05-21.9c6.29.08,10.63,1.77,11.67,4.57,1.04,2.83-1.04,7.1-5.17,10.64h0ZM356.85,155.29l-10.22,31.75s11.53,2.18,23.49-8.04c11.96-10.23,9.79-25.23-13.27-23.71h0ZM366.95,175.28c-5.03,4.29-9.89,6.03-13.55,6.69l7.05-21.9c6.29.08,10.63,1.77,11.67,4.57,1.04,2.83-1.04,7.1-5.17,10.64h0ZM356.85,155.29l-10.22,31.75s11.53,2.18,23.49-8.04c11.96-10.23,9.79-25.23-13.27-23.71h0ZM366.95,175.28c-5.03,4.29-9.89,6.03-13.55,6.69l7.05-21.9c6.29.08,10.63,1.77,11.67,4.57,1.04,2.83-1.04,7.1-5.17,10.64h0ZM356.85,155.29l-10.22,31.75s11.53,2.18,23.49-8.04c11.96-10.23,9.79-25.23-13.27-23.71h0ZM366.95,175.28c-5.03,4.29-9.89,6.03-13.55,6.69l7.05-21.9c6.29.08,10.63,1.77,11.67,4.57,1.04,2.83-1.04,7.1-5.17,10.64h0ZM356.85,155.29l-10.22,31.75s11.53,2.18,23.49-8.04c11.96-10.23,9.79-25.23-13.27-23.71h0ZM366.95,175.28c-5.03,4.29-9.89,6.03-13.55,6.69l7.05-21.9c6.29.08,10.63,1.77,11.67,4.57,1.04,2.83-1.04,7.1-5.17,10.64h0ZM356.85,155.29l-10.22,31.75s11.53,2.18,23.49-8.04c11.96-10.23,9.79-25.23-13.27-23.71h0ZM366.95,175.28c-5.03,4.29-9.89,6.03-13.55,6.69l7.05-21.9c6.29.08,10.63,1.77,11.67,4.57,1.04,2.83-1.04,7.1-5.17,10.64h0ZM356.85,155.29l-10.22,31.75s11.53,2.18,23.49-8.04c11.96-10.23,9.79-25.23-13.27-23.71h0ZM366.95,175.28c-5.03,4.29-9.89,6.03-13.55,6.69l7.05-21.9c6.29.08,10.63,1.77,11.67,4.57,1.04,2.83-1.04,7.1-5.17,10.64h0ZM356.85,155.29l-10.22,31.75s11.53,2.18,23.49-8.04c11.96-10.23,9.79-25.23-13.27-23.71h0ZM366.95,175.28c-5.03,4.29-9.89,6.03-13.55,6.69l7.05-21.9c6.29.08,10.63,1.77,11.67,4.57,1.04,2.83-1.04,7.1-5.17,10.64h0ZM356.85,155.29l-10.22,31.75s11.53,2.18,23.49-8.04c11.96-10.23,9.79-25.23-13.27-23.71h0ZM366.95,175.28c-5.03,4.29-9.89,6.03-13.55,6.69l7.05-21.9c6.29.08,10.63,1.77,11.67,4.57,1.04,2.83-1.04,7.1-5.17,10.64h0ZM356.85,155.29l-10.22,31.75s11.53,2.18,23.49-8.04c11.96-10.23,9.79-25.23-13.27-23.71h0ZM366.95,175.28c-5.03,4.29-9.89,6.03-13.55,6.69l7.05-21.9c6.29.08,10.63,1.77,11.67,4.57,1.04,2.83-1.04,7.1-5.17,10.64h0ZM356.85,155.29l-10.22,31.75s11.53,2.18,23.49-8.04c11.96-10.23,9.79-25.23-13.27-23.71h0ZM366.95,175.28c-5.03,4.29-9.89,6.03-13.55,6.69l7.05-21.9c6.29.08,10.63,1.77,11.67,4.57,1.04,2.83-1.04,7.1-5.17,10.64h0ZM356.85,155.29l-10.22,31.75s11.53,2.18,23.49-8.04c11.96-10.23,9.79-25.23-13.27-23.71h0ZM366.95,175.28c-5.03,4.29-9.89,6.03-13.55,6.69l7.05-21.9c6.29.08,10.63,1.77,11.67,4.57,1.04,2.83-1.04,7.1-5.17,10.64h0ZM356.85,155.29l-10.22,31.75s11.53,2.18,23.49-8.04c11.96-10.23,9.79-25.23-13.27-23.71h0ZM366.95,175.28c-5.03,4.29-9.89,6.03-13.55,6.69l7.05-21.9c6.29.08,10.63,1.77,11.67,4.57,1.04,2.83-1.04,7.1-5.17,10.64h0ZM356.85,155.29l-10.22,31.75s11.53,2.18,23.49-8.04c11.96-10.23,9.79-25.23-13.27-23.71h0ZM366.95,175.28c-5.03,4.29-9.89,6.03-13.55,6.69l7.05-21.9c6.29.08,10.63,1.77,11.67,4.57,1.04,2.83-1.04,7.1-5.17,10.64h0ZM356.85,155.29l-10.22,31.75s11.53,2.18,23.49-8.04c11.96-10.23,9.79-25.23-13.27-23.71h0ZM366.95,175.28c-5.03,4.29-9.89,6.03-13.55,6.69l7.05-21.9c6.29.08,10.63,1.77,11.67,4.57,1.04,2.83-1.04,7.1-5.17,10.64h0ZM356.85,155.29l-10.22,31.75s11.53,2.18,23.49-8.04c11.96-10.23,9.79-25.23-13.27-23.71h0ZM366.95,175.28c-5.03,4.29-9.89,6.03-13.55,6.69l7.05-21.9c6.29.08,10.63,1.77,11.67,4.57,1.04,2.83-1.04,7.1-5.17,10.64h0ZM356.85,155.29l-10.22,31.75s11.53,2.18,23.49-8.04c11.96-10.23,9.79-25.23-13.27-23.71h0ZM366.95,175.28c-5.03,4.29-9.89,6.03-13.55,6.69l7.05-21.9c6.29.08,10.63,1.77,11.67,4.57,1.04,2.83-1.04,7.1-5.17,10.64h0ZM356.85,155.29l-10.22,31.75s11.53,2.18,23.49-8.04c11.96-10.23,9.79-25.23-13.27-23.71h0ZM366.95,175.28c-5.03,4.29-9.89,6.03-13.55,6.69l7.05-21.9c6.29.08,10.63,1.77,11.67,4.57,1.04,2.83-1.04,7.1-5.17,10.64h0ZM356.85,155.29l-10.22,31.75s11.53,2.18,23.49-8.04c11.96-10.23,9.79-25.23-13.27-23.71h0ZM366.95,175.28c-5.03,4.29-9.89,6.03-13.55,6.69l7.05-21.9c6.29.08,10.63,1.77,11.67,4.57,1.04,2.83-1.04,7.1-5.17,10.64h0ZM356.85,155.29l-10.22,31.75s11.53,2.18,23.49-8.04c11.96-10.23,9.79-25.23-13.27-23.71h0ZM366.95,175.28c-5.03,4.29-9.89,6.03-13.55,6.69l7.05-21.9c6.29.08,10.63,1.77,11.67,4.57,1.04,2.83-1.04,7.1-5.17,10.64h0ZM356.85,155.29l-10.22,31.75s11.53,2.18,23.49-8.04c11.96-10.23,9.79-25.23-13.27-23.71h0ZM366.95,175.28c-5.03,4.29-9.89,6.03-13.55,6.69l7.05-21.9c6.29.08,10.63,1.77,11.67,4.57,1.04,2.83-1.04,7.1-5.17,10.64h0Z"/>
    <g>
      <path class="cls-1" d="M356.85,155.29l-10.22,31.75s11.53,2.18,23.49-8.04c11.96-10.23,9.79-25.23-13.27-23.71h0ZM366.95,175.28c-5.03,4.29-9.89,6.03-13.55,6.69l7.05-21.9c6.29.08,10.63,1.77,11.67,4.57,1.04,2.83-1.04,7.1-5.17,10.64h0ZM356.85,155.29l-10.22,31.75s11.53,2.18,23.49-8.04c11.96-10.23,9.79-25.23-13.27-23.71h0ZM366.95,175.28c-5.03,4.29-9.89,6.03-13.55,6.69l7.05-21.9c6.29.08,10.63,1.77,11.67,4.57,1.04,2.83-1.04,7.1-5.17,10.64h0ZM356.85,155.29l-10.22,31.75s11.53,2.18,23.49-8.04c11.96-10.23,9.79-25.23-13.27-23.71h0ZM366.95,175.28c-5.03,4.29-9.89,6.03-13.55,6.69l7.05-21.9c6.29.08,10.63,1.77,11.67,4.57,1.04,2.83-1.04,7.1-5.17,10.64h0ZM356.85,155.29l-10.22,31.75s11.53,2.18,23.49-8.04c11.96-10.23,9.79-25.23-13.27-23.71h0ZM366.95,175.28c-5.03,4.29-9.89,6.03-13.55,6.69l7.05-21.9c6.29.08,10.63,1.77,11.67,4.57,1.04,2.83-1.04,7.1-5.17,10.64h0ZM356.85,155.29l-10.22,31.75s11.53,2.18,23.49-8.04c11.96-10.23,9.79-25.23-13.27-23.71h0ZM366.95,175.28c-5.03,4.29-9.89,6.03-13.55,6.69l7.05-21.9c6.29.08,10.63,1.77,11.67,4.57,1.04,2.83-1.04,7.1-5.17,10.64h0ZM356.85,155.29l-10.22,31.75s11.53,2.18,23.49-8.04c11.96-10.23,9.79-25.23-13.27-23.71h0ZM366.95,175.28c-5.03,4.29-9.89,6.03-13.55,6.69l7.05-21.9c6.29.08,10.63,1.77,11.67,4.57,1.04,2.83-1.04,7.1-5.17,10.64h0ZM356.85,155.29l-10.22,31.75s11.53,2.18,23.49-8.04c11.96-10.23,9.79-25.23-13.27-23.71h0ZM366.95,175.28c-5.03,4.29-9.89,6.03-13.55,6.69l7.05-21.9c6.29.08,10.63,1.77,11.67,4.57,1.04,2.83-1.04,7.1-5.17,10.64h0ZM356.85,155.29l-10.22,31.75s11.53,2.18,23.49-8.04c11.96-10.23,9.79-25.23-13.27-23.71h0ZM366.95,175.28c-5.03,4.29-9.89,6.03-13.55,6.69l7.05-21.9c6.29.08,10.63,1.77,11.67,4.57,1.04,2.83-1.04,7.1-5.17,10.64h0ZM356.85,155.29l-10.22,31.75s11.53,2.18,23.49-8.04c11.96-10.23,9.79-25.23-13.27-23.71h0ZM366.95,175.28c-5.03,4.29-9.89,6.03-13.55,6.69l7.05-21.9c6.29.08,10.63,1.77,11.67,4.57,1.04,2.83-1.04,7.1-5.17,10.64h0ZM356.85,155.29l-10.22,31.75s11.53,2.18,23.49-8.04c11.96-10.23,9.79-25.23-13.27-23.71h0ZM366.95,175.28c-5.03,4.29-9.89,6.03-13.55,6.69l7.05-21.9c6.29.08,10.63,1.77,11.67,4.57,1.04,2.83-1.04,7.1-5.17,10.64h0ZM356.85,155.29l-10.22,31.75s11.53,2.18,23.49-8.04c11.96-10.23,9.79-25.23-13.27-23.71h0ZM366.95,175.28c-5.03,4.29-9.89,6.03-13.55,6.69l7.05-21.9c6.29.08,10.63,1.77,11.67,4.57,1.04,2.83-1.04,7.1-5.17,10.64h0ZM356.85,155.29l-10.22,31.75s11.53,2.18,23.49-8.04c11.96-10.23,9.79-25.23-13.27-23.71h0ZM366.95,175.28c-5.03,4.29-9.89,6.03-13.55,6.69l7.05-21.9c6.29.08,10.63,1.77,11.67,4.57,1.04,2.83-1.04,7.1-5.17,10.64h0ZM356.85,155.29l-10.22,31.75s11.53,2.18,23.49-8.04c11.96-10.23,9.79-25.23-13.27-23.71h0ZM366.95,175.28c-5.03,4.29-9.89,6.03-13.55,6.69l7.05-21.9c6.29.08,10.63,1.77,11.67,4.57,1.04,2.83-1.04,7.1-5.17,10.64h0ZM356.85,155.29l-10.22,31.75s11.53,2.18,23.49-8.04c11.96-10.23,9.79-25.23-13.27-23.71h0ZM366.95,175.28c-5.03,4.29-9.89,6.03-13.55,6.69l7.05-21.9c6.29.08,10.63,1.77,11.67,4.57,1.04,2.83-1.04,7.1-5.17,10.64h0ZM356.85,155.29l-10.22,31.75s11.53,2.18,23.49-8.04c11.96-10.23,9.79-25.23-13.27-23.71h0ZM366.95,175.28c-5.03,4.29-9.89,6.03-13.55,6.69l7.05-21.9c6.29.08,10.63,1.77,11.67,4.57,1.04,2.83-1.04,7.1-5.17,10.64h0ZM356.85,155.29l-10.22,31.75s11.53,2.18,23.49-8.04c11.96-10.23,9.79-25.23-13.27-23.71h0ZM366.95,175.28c-5.03,4.29-9.89,6.03-13.55,6.69l7.05-21.9c6.29.08,10.63,1.77,11.67,4.57,1.04,2.83-1.04,7.1-5.17,10.64h0ZM356.85,155.29l-10.22,31.75s11.53,2.18,23.49-8.04c11.96-10.23,9.79-25.23-13.27-23.71h0ZM366.95,175.28c-5.03,4.29-9.89,6.03-13.55,6.69l7.05-21.9c6.29.08,10.63,1.77,11.67,4.57,1.04,2.83-1.04,7.1-5.17,10.64h0ZM356.85,155.29l-10.22,31.75s11.53,2.18,23.49-8.04c11.96-10.23,9.79-25.23-13.27-23.71h0ZM366.95,175.28c-5.03,4.29-9.89,6.03-13.55,6.69l7.05-21.9c6.29.08,10.63,1.77,11.67,4.57,1.04,2.83-1.04,7.1-5.17,10.64h0ZM356.85,155.29l-10.22,31.75s11.53,2.18,23.49-8.04c11.96-10.23,9.79-25.23-13.27-23.71h0ZM366.95,175.28c-5.03,4.29-9.89,6.03-13.55,6.69l7.05-21.9c6.29.08,10.63,1.77,11.67,4.57,1.04,2.83-1.04,7.1-5.17,10.64h0Z"/>
      <path class="cls-1" d="M371.65,98.08l-9.36,30.02s15.23-1.53,22.41-11.53c7.18-10.01,1.74-20.66-13.05-18.49ZM380.73,113.71c-2.8,3.9-7.31,6.25-11.21,7.65l5.82-18.67h.03c3.53,0,6.11,1.1,7.1,3,1.05,2.04.39,5.05-1.74,8.02h0Z"/>
    </g>
  </g>
  <polygon class="cls-1" points="272.1 72.92 281.42 47.98 257.76 33.86 288.69 31.12 301.16 0 304.87 27.28 322.41 24.95 305.96 40.03 306.89 61.69 294.03 51.82 272.1 72.92"/>
  <path class="cls-1" d="M496.64,99.78c-10.74,86.66-116.94,176.93-180.57,209.48-3.99,2.09-7.99,4.16-11.97,6.23l25.14,21.27-49.75,1.46-23.01,45.2-1.35-44.19c-17.73,7.71-35.68,14.26-54.16,18.76l-3.33,34.64-14.28-26.97-26.97,14.67,8.75-16.54c-11.74.93-23.74.9-36.1-.31l-4.71,29.15-10.27-27.32-24.09,11.45,13.13-18.31c-40.98-15.01-26.67-61.72-3.93-95.6,1.56-2.65,19.17-26.83,21.32-24.59v.04c.19,1.15-1.53,4.5-2.3,6.11-10.27,20.58-26.58,45.57-27.4,69.36v.14c-.29,6.86,2.92,13.42,8.41,17.54,3.88,2.91,8.2,5.33,12.93,7.26h.02l6.59.47,16.44-20.85-4.11,24.67,8.04,1.55h0c8.69.61,18.05.29,27.93-.87l-14.54-13.58,32.17,4.93,18.48-28.33,1.06,29.51c9.09-2.49,18.41-5.5,27.85-8.95l17.15-14.11-7.47-41.46,31.1,23.63,39.18-25.3-13.82,26.97c117.13-64.08,221.82-177.03,141.86-240.3-21.42-16.77-48.81-17.71-76.12-15.25-16.42,1.63-32.13,4.82-46.7,7.99-1.11.18-3.91.96-4.29.58,48.98-19.16,140.4-42.69,175.05,10.23,7.74,11.99,10.1,25.7,8.66,39.54v.02Z"/>
  <g>
    <path class="cls-1" d="M419.02,138.08c10.53-11.39,15.39-24.66,14.09-38.67-1.26-13.54-7.07-24.81-16.81-32.6-9.51-7.6-22.11-11.46-37.45-11.46-8.11,0-17,1.11-26.54,3.29l.12-.48-90.58,25.15,6.89-22.11-70.75,24.13-2.67,6.7c-.73,1.86-1.48,3.7-2.21,5.51l1.07-4.74-39.92,14.46,24.47-56.81-112.1,48.36L0,316.22l81.12-48.34,23.92-88.93,10.52-5.58-14.83,70.14,25.07-7.27c.84-.24,3.05-.91,6.22-2.02l-25.63,64.83,25.15-2.12c1.55-.13,38.14-3.5,60.72-30.97,4.26-5.19,11.19-16.31,24.87-51.57l-13.19,48.18,73.91-17.05,28.69-109.3,5.65-1.16-29.23,112.48,22.27-2.13c7.68-.74,75.86-8.05,103.6-36.8,17.83-18.49,24.28-41.38,16.85-59.74-1.64-4.05-3.89-7.66-6.65-10.76h0ZM106.15,155.99h0l-29.23,108.71-68.52,40.83,62.22-203.14,98.73-42.6-21.43,49.73-7.56,2.74,17.76-41.23-82.68,35.68-56.97,186,53.4-31.83,31.95-118.8,4.72-1.41-2.4,15.33ZM134.04,114.55l-22.71,8.23-1.96,12.54-9.57,2.86-32.16,119.53-40.8,24.31,52.6-171.72,69.31-29.91-14.72,34.16ZM188.47,262.84c-21.27,25.89-55.88,29.09-57.34,29.2l-17.28,1.46,25.62-64.79,10.3,5.08c1.73-1.18,5.49-6.09,9.63-17.9-16.7,10.26-33.9,15.35-34.95,15.64l-17.23,5.01,15.3-72.39-13.83,7.34,2.25-14.43h0l1.8-11.53,1-6.42.83-5.35,1.15-7.38,15.68-5.67,6.31-2.29,7.57-2.74,6.31-2.29,35.86-12.98-4.3,19.16c-1.56,6.97-3.16,14.55-4.53,21.56,6.41-12.36,14.23-29.63,21.25-47.31l1.83-4.62,59.51-20.28-4.95,15.93-6.73,1.87,2.65-8.53-46.03,15.7-.83,2.09c-9.11,22.95-26.48,61.57-34.32,67.54-.84.65-1.56,1.09-2.14,1.39.31-6.7,4.44-28.3,8.56-46.63l1.96-8.7-30.97,11.22-6.31,2.29-7.57,2.74-6.31,2.29-7.22,2.61-.19,1.17-.83,5.35-1.01,6.43-.83,5.35-1.85,11.8,14.57-7.73-15.87,75.08,7.83-2.27c1.29-.37,28.74-8.48,47.01-24.91-6.84,28.46-14.87,38.82-19.96,38.82-.79,0-1.61-.22-2.52-.67l-4.76-2.35-19.79,50.07,7.85-.67c1.36-.11,33.58-3.08,53.3-27.08,10.32-12.56,28.14-60.28,42.57-102.27l6.9-1.93-.02.05c-14.84,43.4-33.69,94.21-44.92,107.87h0ZM148.17,227.56c.26-.13.53-.25.79-.38-.13.21-.25.4-.38.59l-.41-.21ZM172.25,191.5c-16.67,19.81-50.8,29.7-50.8,29.7l16.34-77.32-15.18,8.04.69-4.44.84-5.35h0l1-6.43.22-1.37,6.49-2.35,7.57-2.75,6.31-2.28,26.9-9.74s-9.86,43.89-8.55,50.2c1,4.83,6,2.95,9.87,0,11.85-9.04,35.89-69.63,35.89-69.63l34.79-11.86s-.25.82-.73,2.36l-15.31,4.24-41.92,75.45,34.09-9.53c-14.07,40.78-30.98,85.82-40.62,97.55-18.63,22.68-49.93,25.32-49.93,25.32l14.94-37.8c16.85,8.29,27.09-29.53,31.32-50,.52-2.47-2.61-3.96-4.23-2.02h0ZM302.57,132.03l-28.71,109.37-63.05,14.55,27.4-100.06.04-.12,2.15-7.87-5.08,1.42-6.89,1.93h0l-5.72,1.59-26.07,7.29,35.23-63.42,10.27-2.86,5.63-1.56,6.74-1.87,5.6-1.56,69.05-19.17h0l16.5-4.59-.07.27-1.61,6.58h0l-13.36,54.3-5.32,1.1-6.41,1.32-5.34,1.1-10.98,2.26h0ZM348.06,75.87c43.67-12.35,67.12-.15,69.47,25,2.42,26.03-28.15,39.95-28.15,39.95,26.63.91,32.69,31.47,8.17,56.9-24.52,25.42-93.82,32.08-93.82,32.08l25.55-98.27,5.36-1.11,13.43-54.56h0ZM405.29,205.19c-11.63,12.05-32.28,21.66-61.37,28.58-20.87,4.95-38.44,6.68-39.17,6.75l-15.31,1.47,28.08-108.04,6.41-1.32-26.7,102.71,6.96-.67c2.9-.28,71.4-7.14,96.88-33.56,14.84-15.39,20.44-33.87,14.62-48.24-2.62-6.47-7.34-11.32-13.55-14.14,1.79-1.31,3.66-2.83,5.53-4.53,10.77-9.89,15.86-21.58,14.73-33.79-2.03-21.8-17.91-34.31-43.55-34.31-8.76,0-18.64,1.45-29.45,4.31l1.59-6.46c10.1-2.47,19.43-3.73,27.85-3.73,28.62,0,47.08,14.82,49.39,39.63,1.58,17.09-7.13,29.82-16.2,38.27,3.95,3.31,7.07,7.54,9.09,12.54,6.7,16.54.64,37.43-15.83,54.51h0Z"/>
    <path class="cls-1" d="M332.91,74.74l-5.44,1.51-69.44,19.28-5.61,1.56-6.76,1.88-5.64,1.56-4.2,1.16-27.22,48.99,16.4-4.59,5.72-1.59,6.87-1.93h0l5.63-1.57,5.57-1.56-29.73,108.56,50.02-11.54,28.74-109.46,17.38-3.58,5.34-1.1,5.26-1.09,11.78-47.81-4.68,1.3h0ZM321.8,117.08l-5.22,1.08-18.21,6.79-28.75,109.54-43.66,6.93,29.85-108.99-10.7,2.99-5.63,1.57-6.86,1.92-5.71,1.59-8.34,2.33,18.65-33.58,1.89-3.39,4.78-1.33,6.78-1.88,5.6-1.56,69.78-19.38,4.79-1.33-9.04,36.7Z"/>
  </g>
</svg>